<mxfile host="Electron" modified="2023-12-02T13:37:57.500Z" agent="Mozilla/5.0 (Windows NT 10.0; Win64; x64) AppleWebKit/537.36 (KHTML, like Gecko) draw.io/22.1.2 Chrome/114.0.5735.289 Electron/25.9.4 Safari/537.36" etag="XJjlSajkXyi-_-lQN9wh" version="22.1.2" type="device">
  <diagram name="第 1 页" id="bMrVAK8gPkkUIHQVz1YE">
    <mxGraphModel dx="886" dy="2900" grid="1" gridSize="10" guides="1" tooltips="1" connect="1" arrows="1" fold="1" page="1" pageScale="1" pageWidth="827" pageHeight="1169" math="0" shadow="0">
      <root>
        <mxCell id="0" />
        <mxCell id="1" parent="0" />
        <mxCell id="uES5nWIAYVAduiMYdCwB-1" value="" style="swimlane;startSize=0;fillStyle=auto;fillColor=#000000;fontColor=#333333;strokeColor=#666666;swimlaneFillColor=#E6E6E6;" vertex="1" parent="1">
          <mxGeometry x="68" y="-2254" width="1970" height="1030" as="geometry" />
        </mxCell>
        <mxCell id="uES5nWIAYVAduiMYdCwB-2" value="&lt;b&gt;动画状态机&lt;/b&gt;" style="text;html=1;align=center;verticalAlign=middle;resizable=0;points=[];autosize=1;strokeColor=none;fillColor=none;" vertex="1" parent="uES5nWIAYVAduiMYdCwB-1">
          <mxGeometry width="80" height="30" as="geometry" />
        </mxCell>
        <mxCell id="uES5nWIAYVAduiMYdCwB-3" value="" style="swimlane;startSize=0;fillStyle=auto;fillColor=#000000;fontColor=#333333;strokeColor=#666666;swimlaneFillColor=#FFCCCC;" vertex="1" parent="uES5nWIAYVAduiMYdCwB-1">
          <mxGeometry x="100" y="70" width="1820" height="610" as="geometry" />
        </mxCell>
        <mxCell id="uES5nWIAYVAduiMYdCwB-4" value="&lt;b&gt;Equipped&lt;/b&gt;" style="text;html=1;align=center;verticalAlign=middle;resizable=0;points=[];autosize=1;strokeColor=none;fillColor=none;" vertex="1" parent="uES5nWIAYVAduiMYdCwB-3">
          <mxGeometry width="80" height="30" as="geometry" />
        </mxCell>
        <mxCell id="uES5nWIAYVAduiMYdCwB-5" value="" style="swimlane;startSize=0;fillStyle=auto;fillColor=#000000;fontColor=#333333;strokeColor=#666666;swimlaneFillColor=#FF9999;" vertex="1" parent="uES5nWIAYVAduiMYdCwB-3">
          <mxGeometry x="30" y="80" width="1230" height="470" as="geometry" />
        </mxCell>
        <mxCell id="uES5nWIAYVAduiMYdCwB-6" value="&lt;b&gt;AimOffset/TIP&lt;/b&gt;" style="text;html=1;align=center;verticalAlign=middle;resizable=0;points=[];autosize=1;strokeColor=none;fillColor=none;" vertex="1" parent="uES5nWIAYVAduiMYdCwB-5">
          <mxGeometry x="-10" width="100" height="30" as="geometry" />
        </mxCell>
        <mxCell id="uES5nWIAYVAduiMYdCwB-7" style="edgeStyle=orthogonalEdgeStyle;rounded=0;orthogonalLoop=1;jettySize=auto;html=1;exitX=1;exitY=0.5;exitDx=0;exitDy=0;entryX=0;entryY=0.5;entryDx=0;entryDy=0;" edge="1" parent="uES5nWIAYVAduiMYdCwB-5" source="uES5nWIAYVAduiMYdCwB-8" target="uES5nWIAYVAduiMYdCwB-53">
          <mxGeometry relative="1" as="geometry" />
        </mxCell>
        <mxCell id="uES5nWIAYVAduiMYdCwB-8" value="" style="swimlane;startSize=0;fillStyle=auto;fillColor=#000000;fontColor=#333333;strokeColor=#666666;swimlaneFillColor=#CDA2BE;" vertex="1" parent="uES5nWIAYVAduiMYdCwB-5">
          <mxGeometry x="490" y="210" width="110" height="70" as="geometry" />
        </mxCell>
        <mxCell id="uES5nWIAYVAduiMYdCwB-9" value="&lt;b&gt;Montage Slot&lt;/b&gt;" style="text;html=1;align=center;verticalAlign=middle;resizable=0;points=[];autosize=1;strokeColor=none;fillColor=none;" vertex="1" parent="uES5nWIAYVAduiMYdCwB-8">
          <mxGeometry width="100" height="30" as="geometry" />
        </mxCell>
        <mxCell id="uES5nWIAYVAduiMYdCwB-10" value="&lt;font style=&quot;font-size: 10px;&quot;&gt;允许播放武器相关蒙太奇&lt;/font&gt;" style="text;html=1;strokeColor=none;fillColor=none;align=center;verticalAlign=middle;whiteSpace=wrap;rounded=0;" vertex="1" parent="uES5nWIAYVAduiMYdCwB-8">
          <mxGeometry x="10" y="30" width="90" height="30" as="geometry" />
        </mxCell>
        <mxCell id="uES5nWIAYVAduiMYdCwB-11" value="" style="swimlane;startSize=0;fillStyle=auto;fillColor=#000000;fontColor=#333333;strokeColor=#666666;swimlaneFillColor=#D5E8D4;" vertex="1" parent="uES5nWIAYVAduiMYdCwB-5">
          <mxGeometry x="20" y="40" width="440" height="410" as="geometry" />
        </mxCell>
        <mxCell id="uES5nWIAYVAduiMYdCwB-12" value="&lt;b&gt;Equipped Locomotion&lt;/b&gt;" style="text;html=1;align=center;verticalAlign=middle;resizable=0;points=[];autosize=1;strokeColor=none;fillColor=none;" vertex="1" parent="uES5nWIAYVAduiMYdCwB-11">
          <mxGeometry width="150" height="30" as="geometry" />
        </mxCell>
        <mxCell id="uES5nWIAYVAduiMYdCwB-13" style="edgeStyle=orthogonalEdgeStyle;rounded=0;orthogonalLoop=1;jettySize=auto;html=1;exitX=0.25;exitY=1;exitDx=0;exitDy=0;entryX=0.25;entryY=0;entryDx=0;entryDy=0;" edge="1" parent="uES5nWIAYVAduiMYdCwB-11" source="uES5nWIAYVAduiMYdCwB-14" target="uES5nWIAYVAduiMYdCwB-36">
          <mxGeometry relative="1" as="geometry" />
        </mxCell>
        <mxCell id="uES5nWIAYVAduiMYdCwB-14" value="" style="swimlane;startSize=0;fillStyle=auto;fillColor=#000000;fontColor=#333333;strokeColor=#666666;swimlaneFillColor=none;" vertex="1" parent="uES5nWIAYVAduiMYdCwB-11">
          <mxGeometry x="20" y="40" width="400" height="160" as="geometry" />
        </mxCell>
        <mxCell id="uES5nWIAYVAduiMYdCwB-15" value="&lt;b&gt;Standing&lt;/b&gt;" style="text;html=1;align=center;verticalAlign=middle;resizable=0;points=[];autosize=1;strokeColor=none;fillColor=none;" vertex="1" parent="uES5nWIAYVAduiMYdCwB-14">
          <mxGeometry x="5" width="70" height="30" as="geometry" />
        </mxCell>
        <mxCell id="uES5nWIAYVAduiMYdCwB-16" style="edgeStyle=orthogonalEdgeStyle;rounded=0;orthogonalLoop=1;jettySize=auto;html=1;exitX=0;exitY=0.25;exitDx=0;exitDy=0;entryX=0.5;entryY=1;entryDx=0;entryDy=0;" edge="1" parent="uES5nWIAYVAduiMYdCwB-14" source="uES5nWIAYVAduiMYdCwB-19" target="uES5nWIAYVAduiMYdCwB-20">
          <mxGeometry relative="1" as="geometry">
            <Array as="points">
              <mxPoint x="170" y="85" />
              <mxPoint x="90" y="85" />
            </Array>
          </mxGeometry>
        </mxCell>
        <mxCell id="uES5nWIAYVAduiMYdCwB-17" style="edgeStyle=orthogonalEdgeStyle;rounded=0;orthogonalLoop=1;jettySize=auto;html=1;exitX=0;exitY=0.75;exitDx=0;exitDy=0;entryX=0.5;entryY=0;entryDx=0;entryDy=0;" edge="1" parent="uES5nWIAYVAduiMYdCwB-14" source="uES5nWIAYVAduiMYdCwB-19" target="uES5nWIAYVAduiMYdCwB-22">
          <mxGeometry relative="1" as="geometry">
            <Array as="points">
              <mxPoint x="170" y="95" />
              <mxPoint x="90" y="95" />
            </Array>
          </mxGeometry>
        </mxCell>
        <mxCell id="uES5nWIAYVAduiMYdCwB-18" style="edgeStyle=orthogonalEdgeStyle;rounded=0;orthogonalLoop=1;jettySize=auto;html=1;exitX=1.023;exitY=0.349;exitDx=0;exitDy=0;entryX=0;entryY=0.75;entryDx=0;entryDy=0;exitPerimeter=0;" edge="1" parent="uES5nWIAYVAduiMYdCwB-14" source="uES5nWIAYVAduiMYdCwB-19" target="uES5nWIAYVAduiMYdCwB-24">
          <mxGeometry relative="1" as="geometry" />
        </mxCell>
        <mxCell id="uES5nWIAYVAduiMYdCwB-19" value="Idle&lt;br style=&quot;border-color: var(--border-color);&quot;&gt;&lt;font style=&quot;border-color: var(--border-color); font-size: 6px;&quot;&gt;&lt;font style=&quot;border-color: var(--border-color);&quot;&gt;aim&lt;/font&gt;/hip&lt;/font&gt;" style="rounded=1;whiteSpace=wrap;html=1;fillColor=#fff2cc;strokeColor=#d6b656;" vertex="1" parent="uES5nWIAYVAduiMYdCwB-14">
          <mxGeometry x="170" y="60" width="60" height="60" as="geometry" />
        </mxCell>
        <mxCell id="uES5nWIAYVAduiMYdCwB-20" value="TurnLeft" style="rounded=1;whiteSpace=wrap;html=1;fillColor=none;" vertex="1" parent="uES5nWIAYVAduiMYdCwB-14">
          <mxGeometry x="60" y="35" width="60" height="30" as="geometry" />
        </mxCell>
        <mxCell id="uES5nWIAYVAduiMYdCwB-21" style="edgeStyle=orthogonalEdgeStyle;rounded=0;orthogonalLoop=1;jettySize=auto;html=1;exitX=0.75;exitY=0;exitDx=0;exitDy=0;" edge="1" parent="uES5nWIAYVAduiMYdCwB-14" source="uES5nWIAYVAduiMYdCwB-22">
          <mxGeometry relative="1" as="geometry">
            <mxPoint x="170" y="100" as="targetPoint" />
            <Array as="points">
              <mxPoint x="100" y="115" />
              <mxPoint x="100" y="100" />
            </Array>
          </mxGeometry>
        </mxCell>
        <mxCell id="uES5nWIAYVAduiMYdCwB-22" value="TurnRight" style="rounded=1;whiteSpace=wrap;html=1;fillColor=none;" vertex="1" parent="uES5nWIAYVAduiMYdCwB-14">
          <mxGeometry x="60" y="115" width="60" height="30" as="geometry" />
        </mxCell>
        <mxCell id="uES5nWIAYVAduiMYdCwB-23" style="edgeStyle=orthogonalEdgeStyle;rounded=0;orthogonalLoop=1;jettySize=auto;html=1;exitX=0.25;exitY=0;exitDx=0;exitDy=0;entryX=1;entryY=0.75;entryDx=0;entryDy=0;" edge="1" parent="uES5nWIAYVAduiMYdCwB-14" source="uES5nWIAYVAduiMYdCwB-24" target="uES5nWIAYVAduiMYdCwB-34">
          <mxGeometry relative="1" as="geometry" />
        </mxCell>
        <mxCell id="uES5nWIAYVAduiMYdCwB-24" value="Run" style="rounded=1;whiteSpace=wrap;html=1;fillColor=none;" vertex="1" parent="uES5nWIAYVAduiMYdCwB-14">
          <mxGeometry x="320" y="60" width="40" height="27.5" as="geometry" />
        </mxCell>
        <mxCell id="uES5nWIAYVAduiMYdCwB-25" value="Jump" style="rounded=1;whiteSpace=wrap;html=1;fillColor=none;" vertex="1" parent="uES5nWIAYVAduiMYdCwB-14">
          <mxGeometry x="320" y="100" width="40" height="22.5" as="geometry" />
        </mxCell>
        <mxCell id="uES5nWIAYVAduiMYdCwB-26" style="edgeStyle=orthogonalEdgeStyle;rounded=0;orthogonalLoop=1;jettySize=auto;html=1;exitX=0.5;exitY=1;exitDx=0;exitDy=0;entryX=0.5;entryY=0;entryDx=0;entryDy=0;" edge="1" parent="uES5nWIAYVAduiMYdCwB-14" source="uES5nWIAYVAduiMYdCwB-24" target="uES5nWIAYVAduiMYdCwB-25">
          <mxGeometry relative="1" as="geometry" />
        </mxCell>
        <mxCell id="uES5nWIAYVAduiMYdCwB-27" style="edgeStyle=orthogonalEdgeStyle;rounded=0;orthogonalLoop=1;jettySize=auto;html=1;exitX=-0.042;exitY=0.424;exitDx=0;exitDy=0;entryX=0.988;entryY=0.197;entryDx=0;entryDy=0;entryPerimeter=0;exitPerimeter=0;" edge="1" parent="uES5nWIAYVAduiMYdCwB-14" source="uES5nWIAYVAduiMYdCwB-24" target="uES5nWIAYVAduiMYdCwB-19">
          <mxGeometry relative="1" as="geometry" />
        </mxCell>
        <mxCell id="uES5nWIAYVAduiMYdCwB-28" style="edgeStyle=orthogonalEdgeStyle;rounded=0;orthogonalLoop=1;jettySize=auto;html=1;entryX=0.051;entryY=0.134;entryDx=0;entryDy=0;entryPerimeter=0;exitX=0.991;exitY=0.726;exitDx=0;exitDy=0;exitPerimeter=0;" edge="1" parent="uES5nWIAYVAduiMYdCwB-14" source="uES5nWIAYVAduiMYdCwB-19" target="uES5nWIAYVAduiMYdCwB-25">
          <mxGeometry relative="1" as="geometry">
            <mxPoint x="230" y="100" as="sourcePoint" />
          </mxGeometry>
        </mxCell>
        <mxCell id="uES5nWIAYVAduiMYdCwB-29" style="edgeStyle=orthogonalEdgeStyle;rounded=0;orthogonalLoop=1;jettySize=auto;html=1;exitX=0.666;exitY=1;exitDx=0;exitDy=0;exitPerimeter=0;" edge="1" parent="uES5nWIAYVAduiMYdCwB-14" source="uES5nWIAYVAduiMYdCwB-20">
          <mxGeometry relative="1" as="geometry">
            <mxPoint x="100" y="70" as="sourcePoint" />
            <mxPoint x="170" y="80" as="targetPoint" />
            <Array as="points">
              <mxPoint x="100" y="80" />
            </Array>
          </mxGeometry>
        </mxCell>
        <mxCell id="uES5nWIAYVAduiMYdCwB-30" style="edgeStyle=orthogonalEdgeStyle;rounded=0;orthogonalLoop=1;jettySize=auto;html=1;exitX=0;exitY=0.5;exitDx=0;exitDy=0;entryX=0.991;entryY=0.844;entryDx=0;entryDy=0;entryPerimeter=0;" edge="1" parent="uES5nWIAYVAduiMYdCwB-14" source="uES5nWIAYVAduiMYdCwB-25" target="uES5nWIAYVAduiMYdCwB-19">
          <mxGeometry relative="1" as="geometry" />
        </mxCell>
        <mxCell id="uES5nWIAYVAduiMYdCwB-31" style="edgeStyle=orthogonalEdgeStyle;rounded=0;orthogonalLoop=1;jettySize=auto;html=1;exitX=0;exitY=0.5;exitDx=0;exitDy=0;entryX=0.5;entryY=0;entryDx=0;entryDy=0;" edge="1" parent="uES5nWIAYVAduiMYdCwB-14" source="uES5nWIAYVAduiMYdCwB-34" target="uES5nWIAYVAduiMYdCwB-19">
          <mxGeometry relative="1" as="geometry" />
        </mxCell>
        <mxCell id="uES5nWIAYVAduiMYdCwB-32" style="edgeStyle=orthogonalEdgeStyle;rounded=0;orthogonalLoop=1;jettySize=auto;html=1;exitX=1;exitY=0.5;exitDx=0;exitDy=0;entryX=0.5;entryY=0;entryDx=0;entryDy=0;" edge="1" parent="uES5nWIAYVAduiMYdCwB-14" source="uES5nWIAYVAduiMYdCwB-34" target="uES5nWIAYVAduiMYdCwB-24">
          <mxGeometry relative="1" as="geometry" />
        </mxCell>
        <mxCell id="uES5nWIAYVAduiMYdCwB-33" style="edgeStyle=orthogonalEdgeStyle;rounded=0;orthogonalLoop=1;jettySize=auto;html=1;exitX=1;exitY=0.25;exitDx=0;exitDy=0;entryX=1;entryY=0.5;entryDx=0;entryDy=0;" edge="1" parent="uES5nWIAYVAduiMYdCwB-14" source="uES5nWIAYVAduiMYdCwB-34" target="uES5nWIAYVAduiMYdCwB-25">
          <mxGeometry relative="1" as="geometry" />
        </mxCell>
        <mxCell id="uES5nWIAYVAduiMYdCwB-34" value="AimWalk" style="rounded=1;whiteSpace=wrap;html=1;fillColor=none;" vertex="1" parent="uES5nWIAYVAduiMYdCwB-14">
          <mxGeometry x="240" y="7.5" width="60" height="27.5" as="geometry" />
        </mxCell>
        <mxCell id="uES5nWIAYVAduiMYdCwB-35" style="edgeStyle=orthogonalEdgeStyle;rounded=0;orthogonalLoop=1;jettySize=auto;html=1;exitX=0.75;exitY=0;exitDx=0;exitDy=0;entryX=0.75;entryY=1;entryDx=0;entryDy=0;" edge="1" parent="uES5nWIAYVAduiMYdCwB-11" source="uES5nWIAYVAduiMYdCwB-36" target="uES5nWIAYVAduiMYdCwB-14">
          <mxGeometry relative="1" as="geometry" />
        </mxCell>
        <mxCell id="uES5nWIAYVAduiMYdCwB-36" value="" style="swimlane;startSize=0;fillStyle=auto;fillColor=#000000;fontColor=#333333;strokeColor=#666666;swimlaneFillColor=none;" vertex="1" parent="uES5nWIAYVAduiMYdCwB-11">
          <mxGeometry x="20" y="220" width="400" height="160" as="geometry" />
        </mxCell>
        <mxCell id="uES5nWIAYVAduiMYdCwB-37" value="&lt;b&gt;Crouching&lt;br&gt;&lt;/b&gt;" style="text;html=1;align=center;verticalAlign=middle;resizable=0;points=[];autosize=1;strokeColor=none;fillColor=none;" vertex="1" parent="uES5nWIAYVAduiMYdCwB-36">
          <mxGeometry width="80" height="30" as="geometry" />
        </mxCell>
        <mxCell id="uES5nWIAYVAduiMYdCwB-38" value="Idle&lt;br&gt;&lt;font style=&quot;font-size: 6px;&quot;&gt;&lt;font style=&quot;&quot;&gt;aim&lt;/font&gt;/hip&lt;/font&gt;" style="rounded=1;whiteSpace=wrap;html=1;fillColor=#fff2cc;strokeColor=#d6b656;" vertex="1" parent="uES5nWIAYVAduiMYdCwB-36">
          <mxGeometry x="170" y="60" width="60" height="60" as="geometry" />
        </mxCell>
        <mxCell id="uES5nWIAYVAduiMYdCwB-39" value="TurnLeft" style="rounded=1;whiteSpace=wrap;html=1;fillColor=none;" vertex="1" parent="uES5nWIAYVAduiMYdCwB-36">
          <mxGeometry x="60" y="35" width="60" height="30" as="geometry" />
        </mxCell>
        <mxCell id="uES5nWIAYVAduiMYdCwB-40" style="edgeStyle=orthogonalEdgeStyle;rounded=0;orthogonalLoop=1;jettySize=auto;html=1;exitX=0;exitY=0.25;exitDx=0;exitDy=0;entryX=0.5;entryY=1;entryDx=0;entryDy=0;" edge="1" parent="uES5nWIAYVAduiMYdCwB-36" source="uES5nWIAYVAduiMYdCwB-38" target="uES5nWIAYVAduiMYdCwB-39">
          <mxGeometry relative="1" as="geometry">
            <Array as="points">
              <mxPoint x="170" y="85" />
              <mxPoint x="90.00000000000001" y="85" />
            </Array>
          </mxGeometry>
        </mxCell>
        <mxCell id="uES5nWIAYVAduiMYdCwB-41" style="edgeStyle=orthogonalEdgeStyle;rounded=0;orthogonalLoop=1;jettySize=auto;html=1;exitX=0.75;exitY=0;exitDx=0;exitDy=0;" edge="1" parent="uES5nWIAYVAduiMYdCwB-36" source="uES5nWIAYVAduiMYdCwB-42">
          <mxGeometry relative="1" as="geometry">
            <mxPoint x="170" y="100" as="targetPoint" />
            <Array as="points">
              <mxPoint x="100" y="115" />
              <mxPoint x="100" y="100" />
            </Array>
          </mxGeometry>
        </mxCell>
        <mxCell id="uES5nWIAYVAduiMYdCwB-42" value="TurnRight" style="rounded=1;whiteSpace=wrap;html=1;fillColor=none;" vertex="1" parent="uES5nWIAYVAduiMYdCwB-36">
          <mxGeometry x="60" y="115" width="60" height="30" as="geometry" />
        </mxCell>
        <mxCell id="uES5nWIAYVAduiMYdCwB-43" style="edgeStyle=orthogonalEdgeStyle;rounded=0;orthogonalLoop=1;jettySize=auto;html=1;exitX=0;exitY=0.75;exitDx=0;exitDy=0;entryX=0.5;entryY=0;entryDx=0;entryDy=0;" edge="1" parent="uES5nWIAYVAduiMYdCwB-36" source="uES5nWIAYVAduiMYdCwB-38" target="uES5nWIAYVAduiMYdCwB-42">
          <mxGeometry relative="1" as="geometry">
            <Array as="points">
              <mxPoint x="170" y="95" />
              <mxPoint x="90.00000000000001" y="95" />
            </Array>
          </mxGeometry>
        </mxCell>
        <mxCell id="uES5nWIAYVAduiMYdCwB-44" value="Run" style="rounded=1;whiteSpace=wrap;html=1;fillColor=none;" vertex="1" parent="uES5nWIAYVAduiMYdCwB-36">
          <mxGeometry x="320" y="60" width="40" height="27.5" as="geometry" />
        </mxCell>
        <mxCell id="uES5nWIAYVAduiMYdCwB-45" style="edgeStyle=orthogonalEdgeStyle;rounded=0;orthogonalLoop=1;jettySize=auto;html=1;exitX=1.023;exitY=0.349;exitDx=0;exitDy=0;entryX=0;entryY=0.75;entryDx=0;entryDy=0;exitPerimeter=0;" edge="1" parent="uES5nWIAYVAduiMYdCwB-36" source="uES5nWIAYVAduiMYdCwB-38" target="uES5nWIAYVAduiMYdCwB-44">
          <mxGeometry relative="1" as="geometry" />
        </mxCell>
        <mxCell id="uES5nWIAYVAduiMYdCwB-46" value="Jump" style="rounded=1;whiteSpace=wrap;html=1;fillColor=none;" vertex="1" parent="uES5nWIAYVAduiMYdCwB-36">
          <mxGeometry x="320" y="100" width="40" height="22.5" as="geometry" />
        </mxCell>
        <mxCell id="uES5nWIAYVAduiMYdCwB-47" style="edgeStyle=orthogonalEdgeStyle;rounded=0;orthogonalLoop=1;jettySize=auto;html=1;exitX=0.5;exitY=1;exitDx=0;exitDy=0;entryX=0.5;entryY=0;entryDx=0;entryDy=0;" edge="1" parent="uES5nWIAYVAduiMYdCwB-36" source="uES5nWIAYVAduiMYdCwB-44" target="uES5nWIAYVAduiMYdCwB-46">
          <mxGeometry relative="1" as="geometry" />
        </mxCell>
        <mxCell id="uES5nWIAYVAduiMYdCwB-48" style="edgeStyle=orthogonalEdgeStyle;rounded=0;orthogonalLoop=1;jettySize=auto;html=1;exitX=-0.042;exitY=0.424;exitDx=0;exitDy=0;entryX=0.988;entryY=0.197;entryDx=0;entryDy=0;entryPerimeter=0;exitPerimeter=0;" edge="1" parent="uES5nWIAYVAduiMYdCwB-36" source="uES5nWIAYVAduiMYdCwB-44" target="uES5nWIAYVAduiMYdCwB-38">
          <mxGeometry relative="1" as="geometry" />
        </mxCell>
        <mxCell id="uES5nWIAYVAduiMYdCwB-49" style="edgeStyle=orthogonalEdgeStyle;rounded=0;orthogonalLoop=1;jettySize=auto;html=1;entryX=0.051;entryY=0.134;entryDx=0;entryDy=0;entryPerimeter=0;exitX=0.991;exitY=0.726;exitDx=0;exitDy=0;exitPerimeter=0;" edge="1" parent="uES5nWIAYVAduiMYdCwB-36" source="uES5nWIAYVAduiMYdCwB-38" target="uES5nWIAYVAduiMYdCwB-46">
          <mxGeometry relative="1" as="geometry">
            <mxPoint x="230.00000000000003" y="100" as="sourcePoint" />
          </mxGeometry>
        </mxCell>
        <mxCell id="uES5nWIAYVAduiMYdCwB-50" style="edgeStyle=orthogonalEdgeStyle;rounded=0;orthogonalLoop=1;jettySize=auto;html=1;exitX=0.666;exitY=1;exitDx=0;exitDy=0;exitPerimeter=0;" edge="1" parent="uES5nWIAYVAduiMYdCwB-36" source="uES5nWIAYVAduiMYdCwB-39">
          <mxGeometry relative="1" as="geometry">
            <mxPoint x="100" y="70" as="sourcePoint" />
            <mxPoint x="170" y="80" as="targetPoint" />
            <Array as="points">
              <mxPoint x="100" y="80" />
            </Array>
          </mxGeometry>
        </mxCell>
        <mxCell id="uES5nWIAYVAduiMYdCwB-51" style="edgeStyle=orthogonalEdgeStyle;rounded=0;orthogonalLoop=1;jettySize=auto;html=1;exitX=0;exitY=0.5;exitDx=0;exitDy=0;entryX=0.991;entryY=0.844;entryDx=0;entryDy=0;entryPerimeter=0;" edge="1" parent="uES5nWIAYVAduiMYdCwB-36" source="uES5nWIAYVAduiMYdCwB-46" target="uES5nWIAYVAduiMYdCwB-38">
          <mxGeometry relative="1" as="geometry" />
        </mxCell>
        <mxCell id="uES5nWIAYVAduiMYdCwB-52" style="edgeStyle=orthogonalEdgeStyle;rounded=0;orthogonalLoop=1;jettySize=auto;html=1;exitX=1;exitY=0.5;exitDx=0;exitDy=0;entryX=0;entryY=0.5;entryDx=0;entryDy=0;" edge="1" parent="uES5nWIAYVAduiMYdCwB-5" source="uES5nWIAYVAduiMYdCwB-11" target="uES5nWIAYVAduiMYdCwB-8">
          <mxGeometry relative="1" as="geometry" />
        </mxCell>
        <mxCell id="uES5nWIAYVAduiMYdCwB-53" value="" style="swimlane;startSize=0;fillStyle=auto;fillColor=#f5f5f5;strokeColor=#666666;swimlaneFillColor=#B9E0A5;fontColor=#333333;" vertex="1" parent="uES5nWIAYVAduiMYdCwB-5">
          <mxGeometry x="630" y="222.5" width="150" height="45" as="geometry" />
        </mxCell>
        <mxCell id="uES5nWIAYVAduiMYdCwB-54" value="&lt;b&gt;AimOffset BlendSpace&lt;/b&gt;" style="text;html=1;align=center;verticalAlign=middle;resizable=0;points=[];autosize=1;strokeColor=none;fillColor=none;" vertex="1" parent="uES5nWIAYVAduiMYdCwB-53">
          <mxGeometry width="150" height="30" as="geometry" />
        </mxCell>
        <mxCell id="uES5nWIAYVAduiMYdCwB-55" value="" style="swimlane;startSize=0;fillStyle=auto;fillColor=#000000;fontColor=#333333;strokeColor=#666666;swimlaneFillColor=#FFB366;" vertex="1" parent="uES5nWIAYVAduiMYdCwB-5">
          <mxGeometry x="1020" y="90" width="150" height="70" as="geometry" />
        </mxCell>
        <mxCell id="uES5nWIAYVAduiMYdCwB-56" value="&lt;b&gt;Rotate Root Bone&lt;/b&gt;" style="text;html=1;align=center;verticalAlign=middle;resizable=0;points=[];autosize=1;strokeColor=none;fillColor=none;" vertex="1" parent="uES5nWIAYVAduiMYdCwB-55">
          <mxGeometry width="120" height="30" as="geometry" />
        </mxCell>
        <mxCell id="uES5nWIAYVAduiMYdCwB-57" value="用于Turn In Place" style="text;html=1;strokeColor=none;fillColor=none;align=center;verticalAlign=middle;whiteSpace=wrap;rounded=0;" vertex="1" parent="uES5nWIAYVAduiMYdCwB-55">
          <mxGeometry x="20" y="30" width="110" height="30" as="geometry" />
        </mxCell>
        <mxCell id="uES5nWIAYVAduiMYdCwB-58" value="&lt;b&gt;&lt;font style=&quot;font-size: 14px;&quot;&gt;站在原地时&lt;/font&gt;&lt;/b&gt;" style="text;html=1;strokeColor=none;fillColor=none;align=center;verticalAlign=middle;whiteSpace=wrap;rounded=0;" vertex="1" parent="uES5nWIAYVAduiMYdCwB-5">
          <mxGeometry x="930" y="100" width="80" height="30" as="geometry" />
        </mxCell>
        <mxCell id="uES5nWIAYVAduiMYdCwB-59" value="" style="swimlane;startSize=0;fillStyle=auto;fillColor=#000000;fontColor=#333333;strokeColor=#666666;swimlaneFillColor=#FFB366;" vertex="1" parent="uES5nWIAYVAduiMYdCwB-5">
          <mxGeometry x="830" y="195" width="160" height="100" as="geometry" />
        </mxCell>
        <mxCell id="uES5nWIAYVAduiMYdCwB-60" value="&lt;b&gt;Layered blend per bone&lt;/b&gt;" style="text;html=1;align=center;verticalAlign=middle;resizable=0;points=[];autosize=1;strokeColor=none;fillColor=none;" vertex="1" parent="uES5nWIAYVAduiMYdCwB-59">
          <mxGeometry width="160" height="30" as="geometry" />
        </mxCell>
        <mxCell id="uES5nWIAYVAduiMYdCwB-61" value="UpperBody" style="rounded=0;whiteSpace=wrap;html=1;fillColor=none;" vertex="1" parent="uES5nWIAYVAduiMYdCwB-59">
          <mxGeometry x="32.5" y="30" width="95" height="20" as="geometry" />
        </mxCell>
        <mxCell id="uES5nWIAYVAduiMYdCwB-62" value="LowerBody" style="rounded=0;whiteSpace=wrap;html=1;fillColor=none;" vertex="1" parent="uES5nWIAYVAduiMYdCwB-59">
          <mxGeometry x="32.5" y="60" width="95" height="20" as="geometry" />
        </mxCell>
        <mxCell id="uES5nWIAYVAduiMYdCwB-63" style="edgeStyle=orthogonalEdgeStyle;rounded=0;orthogonalLoop=1;jettySize=auto;html=1;entryX=0;entryY=0.5;entryDx=0;entryDy=0;exitX=1;exitY=0.447;exitDx=0;exitDy=0;exitPerimeter=0;" edge="1" parent="uES5nWIAYVAduiMYdCwB-5" source="uES5nWIAYVAduiMYdCwB-54" target="uES5nWIAYVAduiMYdCwB-61">
          <mxGeometry relative="1" as="geometry" />
        </mxCell>
        <mxCell id="uES5nWIAYVAduiMYdCwB-64" style="edgeStyle=orthogonalEdgeStyle;rounded=0;orthogonalLoop=1;jettySize=auto;html=1;exitX=0.533;exitY=0.019;exitDx=0;exitDy=0;entryX=0;entryY=0.5;entryDx=0;entryDy=0;exitPerimeter=0;" edge="1" parent="uES5nWIAYVAduiMYdCwB-5" source="uES5nWIAYVAduiMYdCwB-60" target="uES5nWIAYVAduiMYdCwB-55">
          <mxGeometry relative="1" as="geometry" />
        </mxCell>
        <mxCell id="uES5nWIAYVAduiMYdCwB-65" style="edgeStyle=orthogonalEdgeStyle;rounded=0;orthogonalLoop=1;jettySize=auto;html=1;exitX=1;exitY=0.75;exitDx=0;exitDy=0;entryX=0;entryY=0.5;entryDx=0;entryDy=0;" edge="1" parent="uES5nWIAYVAduiMYdCwB-5" source="uES5nWIAYVAduiMYdCwB-11" target="uES5nWIAYVAduiMYdCwB-62">
          <mxGeometry relative="1" as="geometry">
            <Array as="points">
              <mxPoint x="800" y="347" />
              <mxPoint x="800" y="265" />
            </Array>
          </mxGeometry>
        </mxCell>
        <mxCell id="uES5nWIAYVAduiMYdCwB-66" style="edgeStyle=orthogonalEdgeStyle;rounded=0;orthogonalLoop=1;jettySize=auto;html=1;exitX=1;exitY=0.5;exitDx=0;exitDy=0;entryX=1;entryY=0.517;entryDx=0;entryDy=0;entryPerimeter=0;" edge="1" parent="uES5nWIAYVAduiMYdCwB-3" source="uES5nWIAYVAduiMYdCwB-67" target="uES5nWIAYVAduiMYdCwB-3">
          <mxGeometry relative="1" as="geometry">
            <Array as="points">
              <mxPoint x="1820" y="315" />
            </Array>
          </mxGeometry>
        </mxCell>
        <mxCell id="uES5nWIAYVAduiMYdCwB-67" value="" style="swimlane;startSize=0;fillStyle=auto;fillColor=#000000;fontColor=#333333;strokeColor=#666666;swimlaneFillColor=#CCCCFF;" vertex="1" parent="uES5nWIAYVAduiMYdCwB-3">
          <mxGeometry x="1320" y="251.25" width="390" height="127.5" as="geometry" />
        </mxCell>
        <mxCell id="uES5nWIAYVAduiMYdCwB-68" value="&lt;b&gt;Skeletal Controll&lt;/b&gt;" style="text;html=1;align=center;verticalAlign=middle;resizable=0;points=[];autosize=1;strokeColor=none;fillColor=none;" vertex="1" parent="uES5nWIAYVAduiMYdCwB-67">
          <mxGeometry width="120" height="30" as="geometry" />
        </mxCell>
        <mxCell id="uES5nWIAYVAduiMYdCwB-69" style="edgeStyle=orthogonalEdgeStyle;rounded=0;orthogonalLoop=1;jettySize=auto;html=1;entryX=0;entryY=0.5;entryDx=0;entryDy=0;exitX=0.998;exitY=0.528;exitDx=0;exitDy=0;exitPerimeter=0;" edge="1" parent="uES5nWIAYVAduiMYdCwB-67" source="uES5nWIAYVAduiMYdCwB-70" target="uES5nWIAYVAduiMYdCwB-73">
          <mxGeometry relative="1" as="geometry" />
        </mxCell>
        <mxCell id="uES5nWIAYVAduiMYdCwB-70" value="" style="swimlane;startSize=0;fillStyle=auto;fillColor=#000000;fontColor=#333333;strokeColor=#666666;swimlaneFillColor=#9999FF;" vertex="1" parent="uES5nWIAYVAduiMYdCwB-67">
          <mxGeometry x="20" y="37.5" width="160" height="63.75" as="geometry" />
        </mxCell>
        <mxCell id="uES5nWIAYVAduiMYdCwB-71" value="&lt;b&gt;Transform (modify) Bone&lt;/b&gt;" style="text;html=1;align=center;verticalAlign=middle;resizable=0;points=[];autosize=1;strokeColor=none;fillColor=none;" vertex="1" parent="uES5nWIAYVAduiMYdCwB-70">
          <mxGeometry width="170" height="30" as="geometry" />
        </mxCell>
        <mxCell id="uES5nWIAYVAduiMYdCwB-72" value="修改右手hand_r使得枪正确瞄向target" style="text;html=1;strokeColor=none;fillColor=none;align=center;verticalAlign=middle;whiteSpace=wrap;rounded=0;" vertex="1" parent="uES5nWIAYVAduiMYdCwB-70">
          <mxGeometry x="22.5" y="30" width="115" height="30" as="geometry" />
        </mxCell>
        <mxCell id="uES5nWIAYVAduiMYdCwB-73" value="" style="swimlane;startSize=0;fillStyle=auto;fillColor=#000000;fontColor=#333333;strokeColor=#666666;swimlaneFillColor=#9999FF;" vertex="1" parent="uES5nWIAYVAduiMYdCwB-67">
          <mxGeometry x="210" y="38.75" width="160" height="63.75" as="geometry">
            <mxRectangle x="210" y="38.75" width="50" height="40" as="alternateBounds" />
          </mxGeometry>
        </mxCell>
        <mxCell id="uES5nWIAYVAduiMYdCwB-74" value="&lt;b&gt;FABRIK&lt;/b&gt;" style="text;html=1;align=center;verticalAlign=middle;resizable=0;points=[];autosize=1;strokeColor=none;fillColor=none;" vertex="1" parent="uES5nWIAYVAduiMYdCwB-73">
          <mxGeometry x="50" width="70" height="30" as="geometry" />
        </mxCell>
        <mxCell id="uES5nWIAYVAduiMYdCwB-75" value="使用IK将左手正确放在枪托上" style="text;html=1;strokeColor=none;fillColor=none;align=center;verticalAlign=middle;whiteSpace=wrap;rounded=0;" vertex="1" parent="uES5nWIAYVAduiMYdCwB-73">
          <mxGeometry x="22.5" y="30" width="115" height="30" as="geometry" />
        </mxCell>
        <mxCell id="uES5nWIAYVAduiMYdCwB-76" style="edgeStyle=orthogonalEdgeStyle;rounded=0;orthogonalLoop=1;jettySize=auto;html=1;exitX=1;exitY=0.5;exitDx=0;exitDy=0;entryX=0;entryY=0.5;entryDx=0;entryDy=0;" edge="1" parent="uES5nWIAYVAduiMYdCwB-3" source="uES5nWIAYVAduiMYdCwB-5" target="uES5nWIAYVAduiMYdCwB-67">
          <mxGeometry relative="1" as="geometry" />
        </mxCell>
        <mxCell id="uES5nWIAYVAduiMYdCwB-77" style="edgeStyle=orthogonalEdgeStyle;rounded=0;orthogonalLoop=1;jettySize=auto;html=1;exitX=0.998;exitY=0.395;exitDx=0;exitDy=0;entryX=0;entryY=0.5;entryDx=0;entryDy=0;exitPerimeter=0;" edge="1" parent="uES5nWIAYVAduiMYdCwB-3" source="uES5nWIAYVAduiMYdCwB-59" target="uES5nWIAYVAduiMYdCwB-67">
          <mxGeometry relative="1" as="geometry">
            <mxPoint x="1080" y="324.71000000000004" as="sourcePoint" />
            <mxPoint x="1260" y="324.71000000000004" as="targetPoint" />
          </mxGeometry>
        </mxCell>
        <mxCell id="uES5nWIAYVAduiMYdCwB-78" style="edgeStyle=orthogonalEdgeStyle;rounded=0;orthogonalLoop=1;jettySize=auto;html=1;entryX=0;entryY=0.5;entryDx=0;entryDy=0;exitX=1.001;exitY=0.571;exitDx=0;exitDy=0;exitPerimeter=0;" edge="1" parent="uES5nWIAYVAduiMYdCwB-3" source="uES5nWIAYVAduiMYdCwB-55" target="uES5nWIAYVAduiMYdCwB-67">
          <mxGeometry relative="1" as="geometry">
            <mxPoint x="1220" y="210" as="sourcePoint" />
            <mxPoint x="1260" y="210" as="targetPoint" />
            <Array as="points">
              <mxPoint x="1240" y="210" />
              <mxPoint x="1240" y="315" />
            </Array>
          </mxGeometry>
        </mxCell>
        <mxCell id="uES5nWIAYVAduiMYdCwB-79" value="" style="swimlane;startSize=0;fillStyle=auto;fillColor=#000000;fontColor=#333333;strokeColor=#666666;swimlaneFillColor=#E6FFCC;" vertex="1" parent="uES5nWIAYVAduiMYdCwB-1">
          <mxGeometry x="120" y="740" width="319" height="230" as="geometry" />
        </mxCell>
        <mxCell id="uES5nWIAYVAduiMYdCwB-80" value="&lt;b&gt;UnEquipped&lt;/b&gt;" style="text;html=1;align=center;verticalAlign=middle;resizable=0;points=[];autosize=1;strokeColor=none;fillColor=none;" vertex="1" parent="uES5nWIAYVAduiMYdCwB-79">
          <mxGeometry x="-1" width="90" height="30" as="geometry" />
        </mxCell>
        <mxCell id="uES5nWIAYVAduiMYdCwB-81" value="" style="swimlane;startSize=0;fillStyle=auto;fillColor=#000000;fontColor=#333333;strokeColor=#666666;swimlaneFillColor=none;" vertex="1" parent="uES5nWIAYVAduiMYdCwB-79">
          <mxGeometry x="20" y="50" width="270" height="160" as="geometry" />
        </mxCell>
        <mxCell id="uES5nWIAYVAduiMYdCwB-82" value="&lt;b&gt;Locomotion&lt;br&gt;&lt;/b&gt;" style="text;html=1;align=center;verticalAlign=middle;resizable=0;points=[];autosize=1;strokeColor=none;fillColor=none;" vertex="1" parent="uES5nWIAYVAduiMYdCwB-81">
          <mxGeometry x="-5" width="90" height="30" as="geometry" />
        </mxCell>
        <mxCell id="uES5nWIAYVAduiMYdCwB-83" value="Idle/Walk/Run&lt;br&gt;&lt;span style=&quot;font-size: 6px;&quot;&gt;Stand/Crouch&lt;/span&gt;" style="rounded=1;whiteSpace=wrap;html=1;fillColor=#fff2cc;strokeColor=#d6b656;" vertex="1" parent="uES5nWIAYVAduiMYdCwB-81">
          <mxGeometry x="40" y="60" width="89" height="60" as="geometry" />
        </mxCell>
        <mxCell id="uES5nWIAYVAduiMYdCwB-84" style="edgeStyle=orthogonalEdgeStyle;rounded=0;orthogonalLoop=1;jettySize=auto;html=1;exitX=0.977;exitY=0.613;exitDx=0;exitDy=0;entryX=0;entryY=0.75;entryDx=0;entryDy=0;exitPerimeter=0;" edge="1" parent="uES5nWIAYVAduiMYdCwB-81" source="uES5nWIAYVAduiMYdCwB-83" target="uES5nWIAYVAduiMYdCwB-86">
          <mxGeometry relative="1" as="geometry" />
        </mxCell>
        <mxCell id="uES5nWIAYVAduiMYdCwB-85" style="edgeStyle=orthogonalEdgeStyle;rounded=0;orthogonalLoop=1;jettySize=auto;html=1;entryX=0.993;entryY=0.373;entryDx=0;entryDy=0;entryPerimeter=0;exitX=0;exitY=0.25;exitDx=0;exitDy=0;" edge="1" parent="uES5nWIAYVAduiMYdCwB-81" source="uES5nWIAYVAduiMYdCwB-86" target="uES5nWIAYVAduiMYdCwB-83">
          <mxGeometry relative="1" as="geometry">
            <mxPoint x="267" y="88" as="sourcePoint" />
          </mxGeometry>
        </mxCell>
        <mxCell id="uES5nWIAYVAduiMYdCwB-86" value="Run" style="rounded=1;whiteSpace=wrap;html=1;fillColor=none;" vertex="1" parent="uES5nWIAYVAduiMYdCwB-81">
          <mxGeometry x="199" y="76.25" width="40" height="27.5" as="geometry" />
        </mxCell>
      </root>
    </mxGraphModel>
  </diagram>
</mxfile>
